<svg width="191" height="45" viewBox="0 0 191 45" fill="none" xmlns="http://www.w3.org/2000/svg">
<path d="M0 22.5C0 10.0736 10.0736 0 22.5 0C34.9264 0 45 10.0736 45 22.5C45 34.9264 34.9264 45 22.5 45C10.0736 45 0 34.9264 0 22.5Z" fill="url(#paint0_linear)"/>
<path d="M25.018 11.7C29.8631 11.7 32.2857 13.6033 32.2857 17.4098C32.2857 19.7842 31.1411 21.5933 28.8521 22.837C26.6013 24.043 23.3776 24.6649 19.181 24.7026C19.1047 26.0593 19.0666 27.1335 19.0666 27.9249C19.0666 29.6209 19.4481 30.8835 20.2111 31.7126C21.0122 32.5041 22.0041 32.8998 23.1868 32.8998C24.3695 32.8998 25.4377 32.6737 26.3914 32.2214C27.3833 31.7691 28.1654 31.2415 28.7377 30.6385C29.3099 29.9978 29.8059 29.3382 30.2255 28.6598C30.9885 27.4161 31.37 26.6247 31.37 26.2855L32.4001 26.7377C32.2857 27.3407 31.9423 28.151 31.37 29.1686C30.7978 30.1485 30.1683 30.9588 29.4816 31.5995C28.7949 32.2402 27.7839 32.8433 26.4487 33.4086C25.1134 33.9362 23.6255 34.2 21.9851 34.2C18.8949 34.2 16.5487 33.484 14.9463 32.0518C13.3822 30.582 12.6001 28.5845 12.6001 26.0593C12.6001 21.5744 13.7255 18.0694 15.9764 15.5443C18.2273 12.9815 21.2411 11.7 25.018 11.7ZM30.855 17.4098C30.855 16.1661 30.4735 15.1485 29.7105 14.3571C28.9856 13.5279 27.8793 13.1134 26.3914 13.1134C24.9417 13.1134 23.5111 13.9802 22.0995 15.7139C20.7261 17.4475 19.8105 20.0103 19.3527 23.4023C27.0209 23.3646 30.855 21.3671 30.855 17.4098Z" fill="white"/>
<path d="M71.905 33V30.381H63.292V25.17H70.582V22.551H63.292V17.043H71.635V14.397H60.43V33H71.905ZM80.8336 20.121C78.9706 20.121 77.3776 20.715 76.0546 21.93C74.7586 23.145 74.1106 24.711 74.1106 26.655C74.1106 28.599 74.7586 30.192 76.0816 31.434C77.4046 32.649 78.9706 33.27 80.8336 33.27C82.9396 33.27 84.6136 32.541 85.8556 31.056L83.6686 29.355C82.9396 30.192 81.9946 30.597 80.8336 30.597C79.7536 30.597 78.8086 30.219 78.0256 29.49C77.2426 28.761 76.8646 27.816 76.8646 26.655C76.8646 25.521 77.2426 24.603 78.0256 23.901C78.8086 23.172 79.7266 22.821 80.8336 22.821C82.0216 22.821 82.9666 23.226 83.6686 24.036L85.8286 22.308C84.5866 20.85 82.9126 20.121 80.8336 20.121ZM94.277 30.57C93.224 30.57 92.306 30.219 91.577 29.49C90.848 28.761 90.47 27.816 90.47 26.655C90.47 25.521 90.848 24.603 91.577 23.901C92.306 23.199 93.224 22.848 94.277 22.848C96.437 22.848 98.111 24.387 98.111 26.655C98.111 27.816 97.733 28.761 97.004 29.49C96.275 30.219 95.357 30.57 94.277 30.57ZM94.277 20.121C92.441 20.121 90.875 20.715 89.606 21.93C88.337 23.145 87.716 24.711 87.716 26.655C87.716 28.599 88.337 30.192 89.606 31.434C90.875 32.649 92.441 33.27 94.277 33.27C96.113 33.27 97.679 32.649 98.948 31.434C100.244 30.192 100.892 28.599 100.892 26.655C100.892 24.711 100.244 23.145 98.975 21.93C97.706 20.715 96.14 20.121 94.277 20.121ZM118.341 22.848C119.961 22.848 121.014 24.036 121.014 25.98V33H123.795V25.737C123.795 22.146 122.04 20.121 118.935 20.121C117.018 20.121 115.614 20.958 114.696 22.632C113.967 20.958 112.644 20.121 110.727 20.121C110.025 20.121 109.269 20.283 108.486 20.634C107.703 20.958 107.136 21.498 106.758 22.281V20.391H103.977V33H106.758V26.223C106.758 23.928 108.135 22.848 109.944 22.848C111.456 22.848 112.482 24.009 112.509 25.926V33H115.29V26.223C115.29 24.198 116.505 22.848 118.341 22.848ZM126.771 27.6C126.771 29.139 127.392 30.489 128.634 31.596C129.876 32.703 131.442 33.27 133.332 33.27C135.087 33.27 136.545 32.811 137.706 31.893C138.867 30.948 139.542 29.76 139.677 28.275C139.974 25.548 138.327 23.469 134.655 22.497L132.279 21.876C130.632 21.444 129.795 20.634 129.795 19.446C129.795 17.934 131.253 16.881 133.008 16.881C134.952 16.881 136.248 17.988 136.248 19.689H139.11C139.11 18.015 138.543 16.692 137.382 15.693C136.248 14.694 134.817 14.181 133.062 14.181C131.388 14.181 129.957 14.694 128.742 15.693C127.527 16.692 126.933 17.961 126.933 19.5C126.933 22.011 128.472 23.658 131.55 24.495L133.899 25.089C135.951 25.575 136.923 26.574 136.842 28.113C136.626 29.544 135.411 30.651 133.332 30.651C132.279 30.651 131.388 30.354 130.713 29.733C130.038 29.112 129.66 28.383 129.633 27.6H126.771ZM143.71 15.612V20.391H141.442V22.686H143.71V33H146.491V22.686H149.164V20.391H146.491V15.612H143.71ZM157.347 30.57C156.294 30.57 155.376 30.219 154.647 29.49C153.918 28.761 153.54 27.816 153.54 26.655C153.54 25.521 153.918 24.603 154.647 23.901C155.376 23.199 156.294 22.848 157.347 22.848C159.507 22.848 161.181 24.387 161.181 26.655C161.181 27.816 160.803 28.761 160.074 29.49C159.345 30.219 158.427 30.57 157.347 30.57ZM157.347 20.121C155.511 20.121 153.945 20.715 152.676 21.93C151.407 23.145 150.786 24.711 150.786 26.655C150.786 28.599 151.407 30.192 152.676 31.434C153.945 32.649 155.511 33.27 157.347 33.27C159.183 33.27 160.749 32.649 162.018 31.434C163.314 30.192 163.962 28.599 163.962 26.655C163.962 24.711 163.314 23.145 162.045 21.93C160.776 20.715 159.21 20.121 157.347 20.121ZM169.829 28.464C169.829 24.927 170.936 22.74 173.204 22.74C173.879 22.74 174.5 22.875 175.067 23.172L175.526 20.607C175.04 20.283 174.284 20.121 173.285 20.121C171.584 20.121 170.45 21.174 169.829 23.28V20.391H167.048V33H169.829V28.464ZM189.556 26.655C189.556 24.684 188.962 23.118 187.774 21.93C186.586 20.715 185.074 20.121 183.238 20.121C181.402 20.121 179.863 20.715 178.621 21.93C177.379 23.118 176.758 24.684 176.758 26.655C176.758 28.626 177.379 30.219 178.621 31.434C179.863 32.649 181.402 33.27 183.238 33.27C185.749 33.27 187.99 32.163 189.07 30.03L186.802 29.031C186.154 30.192 184.804 30.84 183.373 30.84C181.321 30.84 179.755 29.625 179.512 27.681H189.529C189.556 27.492 189.556 27.168 189.556 26.655ZM179.512 25.656C179.755 23.739 181.267 22.551 183.238 22.551C185.155 22.551 186.586 23.712 186.829 25.656H179.512Z" fill="#202124"/>
<defs>
<linearGradient id="paint0_linear" x1="-0.0959656" y1="22.05" x2="44.904" y2="22.05" gradientUnits="userSpaceOnUse">
<stop stop-color="#F8491B"/>
<stop offset="1" stop-color="#DC1860"/>
</linearGradient>
</defs>
</svg>
